<svg width="658" height="450" viewBox="0 0 658 450" fill="none" xmlns="http://www.w3.org/2000/svg">
<g clip-path="url(#clip0_18_112)">
<path d="M398.509 356.975C320.383 389.527 241.827 406.266 177.99 407.03C146.071 407.412 117.858 403.8 95.2269 396.192C72.5993 388.585 55.5858 376.997 45.9872 361.436C36.3886 345.876 35.0718 327.748 40.9809 308.251C46.8908 288.752 60.0217 267.914 79.2633 246.979C117.746 205.112 180.606 162.929 258.733 130.378C336.86 97.8261 415.415 81.0874 479.252 80.3234C511.171 79.9414 539.385 83.5536 562.015 91.1614C584.643 98.7681 601.657 110.356 611.255 125.917C620.854 141.477 622.17 159.605 616.261 179.102C610.352 198.601 597.221 219.44 577.979 240.374C539.497 282.241 476.636 324.424 398.509 356.975Z" stroke="#00A3FF"/>
<path d="M384.329 361.961C301.617 386.064 220.502 394.595 156.233 388.92C124.097 386.083 96.1997 379.696 74.4273 369.947C52.6574 360.199 37.0486 347.11 29.4011 330.872C21.7535 314.634 22.7535 296.705 31.1955 278.153C39.6385 259.599 55.5123 240.457 77.5416 221.835C121.598 184.593 190.201 149.495 272.913 125.392C355.625 101.289 436.74 92.7578 501.009 98.4328C533.145 101.27 561.043 107.658 582.815 117.406C604.585 127.154 620.194 140.243 627.841 156.481C635.489 172.719 634.489 190.649 626.047 209.2C617.604 227.754 601.73 246.896 579.701 265.518C535.644 302.76 467.041 337.858 384.329 361.961Z" stroke="#00A3FF"/>
<path d="M26.8042 340.5C31.7274 337.784 35.7845 333.727 38.5 328.804C41.2155 333.727 45.2726 337.784 50.1957 340.5C45.2726 343.216 41.2155 347.273 38.5 352.196C35.7845 347.273 31.7274 343.216 26.8042 340.5Z" fill="#00A3FF" stroke="white" stroke-width="4"/>
<path d="M605.804 143.5C610.727 140.784 614.784 136.727 617.5 131.804C620.216 136.727 624.273 140.784 629.196 143.5C624.273 146.216 620.216 150.273 617.5 155.196C614.784 150.273 610.727 146.216 605.804 143.5Z" fill="#00A3FF" stroke="white" stroke-width="4"/>
</g>
<defs>
<clipPath id="clip0_18_112">
<rect width="658" height="450" fill="white"/>
</clipPath>
</defs>
</svg>
